<svg xmlns="http://www.w3.org/2000/svg"  viewBox="0 0 64 64" width="192px" height="192px"><path d="M 31.986328 8.9921875 C 19.301328 8.9921875 8.9824219 19.311094 8.9824219 31.996094 C 8.9824219 44.680094 19.302328 55 31.986328 55 C 34.140328 55 36.223125 54.694672 38.203125 54.138672 C 36.426125 52.372672 36.810547 50.897781 36.810547 45.300781 C 35.928547 47.576781 34.875125 49.228578 33.828125 50.142578 L 33.828125 43.681641 C 34.837125 43.754641 35.829594 43.894219 36.808594 44.074219 L 36.808594 40.025391 C 35.825594 39.869391 34.834125 39.741734 33.828125 39.677734 L 33.828125 34 L 38.931641 34 C 38.904641 34.675 38.858688 35.326797 38.804688 35.966797 C 40.015687 35.133797 41.408469 34.916531 42.855469 35.394531 C 42.885469 34.932531 42.915594 34.472 42.933594 34 L 50.880859 34 C 50.628859 36.391 49.918422 38.640641 48.857422 40.681641 L 51.814453 43.638672 C 53.829453 40.220672 54.990234 36.242094 54.990234 31.996094 C 54.990234 19.312094 44.671328 8.9921875 31.986328 8.9921875 z M 33.828125 13.865234 C 34.989125 14.881234 36.163656 16.785891 37.097656 19.462891 C 36.026656 19.669891 34.936125 19.824297 33.828125 19.904297 L 33.828125 13.865234 z M 29.828125 14.164062 L 29.828125 19.908203 C 28.822125 19.838203 27.831516 19.702391 26.853516 19.525391 C 27.706516 17.058391 28.763125 15.244063 29.828125 14.164062 z M 24.746094 14.433594 C 24.074094 15.634594 23.47775 17.00925 22.96875 18.53125 C 21.93175 18.17725 20.935469 17.75625 19.980469 17.28125 C 21.410469 16.11125 23.014094 15.150594 24.746094 14.433594 z M 39.226562 14.433594 C 40.896562 15.124594 42.443937 16.049063 43.835938 17.164062 C 42.916938 17.635063 41.961844 18.056109 40.964844 18.412109 C 40.464844 16.937109 39.881563 15.603594 39.226562 14.433594 z M 46.796875 20.115234 C 49.022875 22.884234 50.494766 26.282953 50.884766 30.001953 L 42.935547 30.001953 C 42.831547 27.234953 42.512719 24.636437 42.011719 22.273438 C 43.693719 21.692437 45.300875 20.974234 46.796875 20.115234 z M 17.0625 20.267578 C 18.5875 21.118578 20.223547 21.827531 21.935547 22.394531 C 21.449547 24.725531 21.139109 27.281953 21.037109 30.001953 L 13.089844 30.001953 C 13.472844 26.348953 14.9035 23.009578 17.0625 20.267578 z M 38.140625 23.335938 C 38.547625 25.316937 38.831641 27.540953 38.931641 30.001953 L 33.828125 30.001953 L 33.828125 23.908203 C 35.289125 23.815203 36.731625 23.621937 38.140625 23.335938 z M 25.818359 23.402344 C 27.133359 23.653344 28.472125 23.829109 29.828125 23.912109 L 29.828125 30.001953 L 25.039062 30.001953 C 25.138063 27.568953 25.419359 25.366344 25.818359 23.402344 z M 13.091797 34.001953 L 21.037109 34.001953 C 21.133109 36.569953 21.413516 38.99375 21.853516 41.21875 C 20.091516 41.80775 18.414516 42.552359 16.853516 43.443359 C 14.816516 40.757359 13.463797 37.527953 13.091797 34.001953 z M 25.039062 34.001953 L 29.828125 34.001953 L 29.828125 39.673828 C 28.443125 39.758828 27.075422 39.937266 25.732422 40.197266 C 25.377422 38.336266 25.131062 36.267953 25.039062 34.001953 z M 41.355469 39.148438 C 41.296328 39.154031 41.238641 39.168156 41.181641 39.191406 C 40.955641 39.285406 40.808594 39.505 40.808594 39.75 L 40.808594 50.830078 C 40.808594 51.093078 40.961219 51.331406 41.199219 51.441406 C 41.438219 51.550406 41.730969 51.526797 41.917969 51.341797 L 43.894531 49.384766 L 46.851562 54.650391 C 46.930563 54.791391 47.059844 54.896406 47.214844 54.941406 C 47.369844 54.986406 47.537734 54.971625 47.677734 54.890625 L 49.001953 54.126953 C 49.282953 53.964953 49.412094 53.604219 49.246094 53.324219 L 46.345703 48.419922 L 49.439453 48.328125 C 49.675453 48.321125 49.885656 48.176031 49.972656 47.957031 C 50.059656 47.738031 50.008797 47.487313 49.841797 47.320312 L 41.841797 39.322266 C 41.712047 39.192516 41.532891 39.131656 41.355469 39.148438 z M 29.828125 43.677734 L 29.828125 49.84375 C 28.707125 48.70775 27.601562 46.746078 26.726562 44.080078 C 27.745563 43.892078 28.778125 43.750734 29.828125 43.677734 z M 22.841797 45.095703 C 23.374797 46.762703 24.012328 48.257688 24.736328 49.554688 C 22.884328 48.787688 21.184641 47.733172 19.681641 46.451172 C 20.687641 45.932172 21.741797 45.476703 22.841797 45.095703 z"/></svg>