<svg xmlns="http://www.w3.org/2000/svg"  viewBox="0 0 64 64" width="192px" height="192px"><path d="M 13.667969 8 L 22.5 22.720703 L 22.5 24.910156 C 17.978519 27.96842 15 33.14223 15 39 C 15 48.374 22.626 56 32 56 C 41.374 56 49 48.374 49 39 C 49 33.14223 46.021481 27.96842 41.5 24.910156 L 41.5 22.720703 L 50.332031 8 L 45.667969 8 L 37.867188 21 L 33.533203 21 L 41.332031 8 L 36.667969 8 L 32 15.779297 L 27.332031 8 L 22.667969 8 L 29.667969 19.667969 L 28.867188 21 L 26.132812 21 L 18.332031 8 L 13.667969 8 z M 32 26 C 39.168 26 45 31.832 45 39 C 45 46.168 39.168 52 32 52 C 24.832 52 19 46.168 19 39 C 19 31.832 24.832 26 32 26 z M 32.390625 32 C 31.722625 32 31.205172 32.097234 30.451172 32.615234 L 27.371094 34.746094 C 26.865094 35.102094 26.673828 35.469844 26.673828 35.964844 C 26.673828 36.653844 27.1565 37.126953 27.8125 37.126953 C 28.1465 37.126953 28.372828 37.050938 28.673828 36.835938 L 30.947266 35.253906 L 31.011719 35.253906 L 31.011719 44.375 C 31.011719 45.355 31.668953 46.001953 32.626953 46.001953 C 33.584953 46.001953 34.230469 45.355 34.230469 44.375 L 34.230469 33.820312 C 34.230469 32.700312 33.541625 32 32.390625 32 z"/></svg>