<svg xmlns="http://www.w3.org/2000/svg"  viewBox="0 0 64 64" width="100px" height="100px"><path d="M 36 10 C 29.527 10 23.558 13.520844 20.375 19.089844 C 19.916 19.030844 19.457 19 19 19 C 13.636 19 9.1672656 22.770641 8.1972656 27.931641 C 4.3492656 30.289641 2 34.439 2 39 C 2 46.168 7.832 52 15 52 L 48 52 C 55.72 52 62 45.72 62 38 C 62 32.479 58.743344 27.508813 53.777344 25.257812 C 52.444344 16.605812 44.868 10 36 10 z M 36 14 C 44.503 14 50.161875 21.389766 50.046875 28.134766 C 54.165875 29.165766 58 32.73 58 38 C 58 43.514 53.514 48 48 48 L 15 48 C 10.037 48 6 43.962 6 39 C 6 34.529 8.9845469 31.784609 11.935547 30.474609 C 11.897547 27.090609 14.181 23 19 23 C 20.446 23 21.745453 23.526234 22.564453 23.740234 C 24.637453 18.225234 29.541 14 36 14 z M 32 25 C 30.896 25 30 25.895 30 27 L 30 34 L 26.855469 34 C 25.312469 34 24.446484 35.776187 25.396484 36.992188 L 30.541016 43.568359 C 31.283016 44.515359 32.716031 44.515359 33.457031 43.568359 L 38.603516 36.992188 C 39.554516 35.776187 38.687531 34 37.144531 34 L 34 34 L 34 27 C 34 25.895 33.104 25 32 25 z"/></svg>