<svg xmlns="http://www.w3.org/2000/svg"  viewBox="0 0 64 64" width="192px" height="192px"><path d="M 32 8 C 30.896 8 30 8.896 30 10 L 30 38.205078 L 23.417969 31.589844 C 22.638969 30.806844 21.372844 30.801031 20.589844 31.582031 C 19.807844 32.361031 19.803031 33.627156 20.582031 34.410156 L 30.582031 44.460938 C 30.958031 44.837938 31.468 45.050781 32 45.050781 C 32.532 45.050781 33.041969 44.838938 33.417969 44.460938 L 43.417969 34.410156 C 44.196969 33.627156 44.192156 32.361031 43.410156 31.582031 C 42.627156 30.802031 41.361031 30.807844 40.582031 31.589844 L 34 38.205078 L 34 10 C 34 8.896 33.104 8 32 8 z M 9 38 C 7.896 38 7 38.896 7 40 L 7 48 C 7 51.309 9.691 54 13 54 L 51 54 C 54.309 54 57 51.309 57 48 L 57 40 C 57 38.896 56.104 38 55 38 C 53.896 38 53 38.896 53 40 L 53 48 C 53 49.103 52.103 50 51 50 L 13 50 C 11.897 50 11 49.103 11 48 L 11 40 C 11 38.896 10.104 38 9 38 z"/></svg>